%FSLAX24Y24*%
%MOIN*%
G70*
G01*
G75*
G04 Layer_Color=8388736*
%ADD10R,0.1024X0.0433*%
%ADD11R,0.0591X0.1181*%
%ADD12R,0.2461X0.2677*%
%ADD13R,0.0276X0.0354*%
%ADD14R,0.0244X0.0480*%
%ADD15R,0.0354X0.0315*%
%ADD16R,0.0512X0.0217*%
%ADD17R,0.0354X0.0276*%
%ADD18R,0.0299X0.0500*%
%ADD19C,0.0200*%
%ADD20C,0.0300*%
%ADD21R,0.0866X0.0866*%
%ADD22C,0.0591*%
%ADD23C,0.0400*%
%ADD24C,0.0100*%
%ADD25C,0.0098*%
%ADD26C,0.0079*%
%ADD27C,0.0050*%
%ADD28C,0.0080*%
%ADD29R,0.1084X0.0493*%
%ADD30R,0.0651X0.1241*%
%ADD31R,0.2521X0.2737*%
%ADD32R,0.0336X0.0414*%
%ADD33R,0.0304X0.0540*%
%ADD34R,0.0414X0.0375*%
%ADD35R,0.0572X0.0277*%
%ADD36R,0.0414X0.0336*%
%ADD37R,0.0359X0.0560*%
%ADD38R,0.0926X0.0926*%
%ADD39C,0.0651*%
%ADD40C,0.0460*%
D29*
X14700Y13719D02*
D03*
Y14782D02*
D03*
D30*
X17300Y11750D02*
D03*
X19100D02*
D03*
D31*
X18200Y14348D02*
D03*
D32*
X17645Y10750D02*
D03*
X17055D02*
D03*
D33*
X13924Y16584D02*
D03*
X13176D02*
D03*
Y17616D02*
D03*
X13550D02*
D03*
X13924D02*
D03*
D34*
X14650Y17024D02*
D03*
Y17576D02*
D03*
D35*
X15558Y11524D02*
D03*
Y11150D02*
D03*
Y10776D02*
D03*
X16542D02*
D03*
Y11524D02*
D03*
D36*
X11250Y17645D02*
D03*
Y17055D02*
D03*
X11950Y17645D02*
D03*
Y17055D02*
D03*
X12600Y17645D02*
D03*
Y17055D02*
D03*
X10600Y17645D02*
D03*
Y17055D02*
D03*
D37*
X10850Y15750D02*
D03*
X11350D02*
D03*
X11850D02*
D03*
X12350D02*
D03*
Y12750D02*
D03*
X11850D02*
D03*
X11350D02*
D03*
X10850D02*
D03*
D38*
X15881Y13950D02*
D03*
X13519D02*
D03*
X14700Y15800D02*
D03*
D39*
X16500Y17500D02*
D03*
X15500D02*
D03*
X12000Y11000D02*
D03*
X11000D02*
D03*
X13500D02*
D03*
X14500D02*
D03*
X18000Y17500D02*
D03*
X19000D02*
D03*
D40*
X13700Y15900D02*
D03*
M02*
