%FSLAX24Y24*%
%MOIN*%
G70*
G01*
G75*
G04 Layer_Color=32896*
%ADD10R,0.1024X0.0433*%
%ADD11R,0.0591X0.1181*%
%ADD12R,0.2461X0.2677*%
%ADD13R,0.0276X0.0354*%
%ADD14R,0.0244X0.0480*%
%ADD15R,0.0354X0.0315*%
%ADD16R,0.0512X0.0217*%
%ADD17R,0.0354X0.0276*%
%ADD18R,0.0299X0.0500*%
%ADD19C,0.0200*%
%ADD20C,0.0300*%
%ADD21R,0.0866X0.0866*%
%ADD22C,0.0591*%
%ADD23C,0.0400*%
%ADD24C,0.0100*%
%ADD25C,0.0098*%
%ADD26C,0.0079*%
%ADD27C,0.0050*%
%ADD28C,0.0080*%
%ADD29R,0.1084X0.0493*%
%ADD30R,0.0651X0.1241*%
%ADD31R,0.2521X0.2737*%
%ADD32R,0.0336X0.0414*%
%ADD33R,0.0304X0.0540*%
%ADD34R,0.0414X0.0375*%
%ADD35R,0.0572X0.0277*%
%ADD36R,0.0414X0.0336*%
%ADD37R,0.0359X0.0560*%
%ADD38R,0.0926X0.0926*%
%ADD39C,0.0651*%
%ADD40C,0.0460*%
G36*
X19210Y13418D02*
X19060D01*
Y12800D01*
X19210D01*
Y12390D01*
X18442D01*
Y12800D01*
X18598D01*
Y13171D01*
X18218Y12637D01*
X18192D01*
X17805Y13171D01*
Y12800D01*
X17961D01*
Y12390D01*
X17194D01*
Y12800D01*
X17350D01*
Y13418D01*
X17194D01*
Y13827D01*
X17802D01*
X18192Y13288D01*
X18211D01*
X18602Y13827D01*
X19210D01*
Y13418D01*
D02*
G37*
D24*
X10487Y16312D02*
X14700D01*
X10487Y12257D02*
Y16312D01*
Y12257D02*
X16393D01*
Y16312D01*
X14700D02*
X16393D01*
D28*
X13833Y18133D02*
X13900Y18200D01*
X14033D01*
X14100Y18133D01*
Y17867D01*
X14033Y17800D01*
X13900D01*
X13833Y17867D01*
X13633Y18067D02*
X13500D01*
X13434Y18000D01*
Y17800D01*
X13633D01*
X13700Y17867D01*
X13633Y17933D01*
X13434D01*
X13300Y18067D02*
Y17867D01*
X13234Y17800D01*
X13034D01*
Y18067D01*
X12834Y18133D02*
Y18067D01*
X12900D01*
X12767D01*
X12834D01*
Y17867D01*
X12767Y17800D01*
X12567D02*
X12434D01*
X12501D01*
Y18067D01*
X12567D01*
X12167Y17800D02*
X12034D01*
X11967Y17867D01*
Y18000D01*
X12034Y18067D01*
X12167D01*
X12234Y18000D01*
Y17867D01*
X12167Y17800D01*
X11834D02*
Y18067D01*
X11634D01*
X11567Y18000D01*
Y17800D01*
X14800Y17600D02*
X14933D01*
X15000Y17533D01*
Y17267D01*
X14933Y17200D01*
X14800D01*
X14733Y17267D01*
Y17533D01*
X14800Y17600D01*
X14600Y17200D02*
Y17467D01*
X14400D01*
X14334Y17400D01*
Y17200D01*
X14200D02*
X14067D01*
X14134D01*
Y17600D01*
X14200D01*
X13867Y17467D02*
Y17267D01*
X13800Y17200D01*
X13600D01*
Y17133D01*
X13667Y17067D01*
X13734D01*
X13600Y17200D02*
Y17467D01*
X13067Y17067D02*
Y17467D01*
X12867D01*
X12801Y17400D01*
Y17267D01*
X12867Y17200D01*
X13067D01*
X12601D02*
X12467D01*
X12401Y17267D01*
Y17400D01*
X12467Y17467D01*
X12601D01*
X12667Y17400D01*
Y17267D01*
X12601Y17200D01*
X12268Y17467D02*
Y17267D01*
X12201Y17200D01*
X12134Y17267D01*
X12068Y17200D01*
X12001Y17267D01*
Y17467D01*
X11668Y17200D02*
X11801D01*
X11868Y17267D01*
Y17400D01*
X11801Y17467D01*
X11668D01*
X11601Y17400D01*
Y17333D01*
X11868D01*
X11468Y17467D02*
Y17200D01*
Y17333D01*
X11401Y17400D01*
X11335Y17467D01*
X11268D01*
X10868Y17200D02*
X11001D01*
X11068Y17267D01*
Y17400D01*
X11001Y17467D01*
X10868D01*
X10801Y17400D01*
Y17333D01*
X11068D01*
X10401Y17600D02*
Y17200D01*
X10601D01*
X10668Y17267D01*
Y17400D01*
X10601Y17467D01*
X10401D01*
X14883Y16550D02*
Y16883D01*
Y16750D01*
X14950D01*
X14817D01*
X14883D01*
Y16883D01*
X14817Y16950D01*
X14617Y16817D02*
Y16550D01*
Y16683D01*
X14550Y16750D01*
X14483Y16817D01*
X14417D01*
X14150Y16550D02*
X14017D01*
X13950Y16617D01*
Y16750D01*
X14017Y16817D01*
X14150D01*
X14217Y16750D01*
Y16617D01*
X14150Y16550D01*
X13817D02*
Y16817D01*
X13750D01*
X13684Y16750D01*
Y16550D01*
Y16750D01*
X13617Y16817D01*
X13550Y16750D01*
Y16550D01*
X13017D02*
X12884D01*
X12951D01*
Y16817D01*
X13017D01*
X12684Y16550D02*
X12484D01*
X12417Y16617D01*
X12484Y16683D01*
X12617D01*
X12684Y16750D01*
X12617Y16817D01*
X12417D01*
X12218Y16550D02*
X12084D01*
X12018Y16617D01*
Y16750D01*
X12084Y16817D01*
X12218D01*
X12284Y16750D01*
Y16617D01*
X12218Y16550D01*
X11884D02*
X11751D01*
X11818D01*
Y16950D01*
X11884D01*
X11484Y16817D02*
X11351D01*
X11285Y16750D01*
Y16550D01*
X11484D01*
X11551Y16617D01*
X11484Y16683D01*
X11285D01*
X11085Y16883D02*
Y16817D01*
X11151D01*
X11018D01*
X11085D01*
Y16617D01*
X11018Y16550D01*
X10618D02*
X10751D01*
X10818Y16617D01*
Y16750D01*
X10751Y16817D01*
X10618D01*
X10551Y16750D01*
Y16683D01*
X10818D01*
X10152Y16950D02*
Y16550D01*
X10351D01*
X10418Y16617D01*
Y16750D01*
X10351Y16817D01*
X10152D01*
X19600Y12050D02*
X19333D01*
X19467D01*
Y11650D01*
X18934Y12050D02*
X19067Y11983D01*
X19200Y11850D01*
Y11717D01*
X19133Y11650D01*
X19000D01*
X18934Y11717D01*
Y11783D01*
X19000Y11850D01*
X19200D01*
X18800Y12050D02*
X18534D01*
Y11983D01*
X18800Y11717D01*
Y11650D01*
X17734Y11917D02*
X17934D01*
X18001Y11850D01*
Y11717D01*
X17934Y11650D01*
X17734D01*
X17534D02*
X17401D01*
X17334Y11717D01*
Y11850D01*
X17401Y11917D01*
X17534D01*
X17601Y11850D01*
Y11717D01*
X17534Y11650D01*
X17201D02*
Y11917D01*
X17001D01*
X16934Y11850D01*
Y11650D01*
X16734Y11983D02*
Y11917D01*
X16801D01*
X16668D01*
X16734D01*
Y11717D01*
X16668Y11650D01*
X16468Y11917D02*
Y11650D01*
Y11783D01*
X16401Y11850D01*
X16334Y11917D01*
X16268D01*
X16001Y11650D02*
X15868D01*
X15801Y11717D01*
Y11850D01*
X15868Y11917D01*
X16001D01*
X16068Y11850D01*
Y11717D01*
X16001Y11650D01*
X15668D02*
X15535D01*
X15601D01*
Y12050D01*
X15668D01*
X15335Y11650D02*
X15201D01*
X15268D01*
Y12050D01*
X15335D01*
X14802Y11650D02*
X14935D01*
X15001Y11717D01*
Y11850D01*
X14935Y11917D01*
X14802D01*
X14735Y11850D01*
Y11783D01*
X15001D01*
X14602Y11917D02*
Y11650D01*
Y11783D01*
X14535Y11850D01*
X14468Y11917D01*
X14402D01*
X19600Y11300D02*
Y10900D01*
Y11033D01*
X19333Y11300D01*
X19533Y11100D01*
X19333Y10900D01*
X19200Y11167D02*
Y10967D01*
X19133Y10900D01*
X18934D01*
Y11167D01*
X18734Y10900D02*
X18600D01*
X18534Y10967D01*
Y11100D01*
X18600Y11167D01*
X18734D01*
X18800Y11100D01*
Y10967D01*
X18734Y10900D01*
X18334Y10833D02*
X18267Y10900D01*
Y10967D01*
X18334D01*
Y10900D01*
X18267D01*
X18334Y10833D01*
X18400Y10767D01*
X17601Y11233D02*
X17534Y11300D01*
X17401D01*
X17334Y11233D01*
Y10967D01*
X17401Y10900D01*
X17534D01*
X17601Y10967D01*
Y11233D01*
X17201D02*
X17134Y11300D01*
X17001D01*
X16934Y11233D01*
Y11167D01*
X17001Y11100D01*
X17067D01*
X17001D01*
X16934Y11033D01*
Y10967D01*
X17001Y10900D01*
X17134D01*
X17201Y10967D01*
X16734Y11367D02*
Y11233D01*
X16801Y11167D01*
X16534Y10900D02*
X16401D01*
X16468D01*
Y11300D01*
X16534Y11233D01*
X16001Y10900D02*
Y11300D01*
X16201Y11100D01*
X15935D01*
X19600Y16750D02*
Y16350D01*
Y16550D01*
X19333D01*
Y16750D01*
Y16350D01*
X19200D02*
X19067D01*
X19133D01*
Y16617D01*
X19200D01*
X18734Y16217D02*
X18667D01*
X18600Y16283D01*
Y16617D01*
X18800D01*
X18867Y16550D01*
Y16417D01*
X18800Y16350D01*
X18600D01*
X18467Y16750D02*
Y16350D01*
Y16550D01*
X18400Y16617D01*
X18267D01*
X18200Y16550D01*
Y16350D01*
X17667Y16750D02*
Y16483D01*
X17534Y16350D01*
X17401Y16483D01*
Y16750D01*
M02*
