%FSLAX24Y24*%
%MOIN*%
G70*
G01*
G75*
G04 Layer_Physical_Order=1*
G04 Layer_Color=255*
%ADD10R,0.1024X0.0433*%
%ADD11R,0.0591X0.1181*%
%ADD12R,0.2461X0.2677*%
%ADD13R,0.0276X0.0354*%
%ADD14R,0.0244X0.0480*%
%ADD15R,0.0354X0.0315*%
%ADD16R,0.0512X0.0217*%
%ADD17R,0.0354X0.0276*%
%ADD18R,0.0299X0.0500*%
%ADD19C,0.0200*%
%ADD20C,0.0300*%
%ADD21R,0.0866X0.0866*%
%ADD22C,0.0591*%
%ADD23C,0.0400*%
G36*
X15450Y17852D02*
X15407Y17846D01*
X15321Y17810D01*
X15280Y17779D01*
X14887D01*
Y17793D01*
X14413D01*
Y17779D01*
X14106D01*
Y17916D01*
X13772D01*
Y17956D01*
X13625D01*
Y17616D01*
Y17276D01*
X13680D01*
X13688Y17255D01*
X13660Y17213D01*
X13300D01*
X13238Y17201D01*
X13185Y17165D01*
X13061Y17041D01*
X13025Y16988D01*
X13013Y16926D01*
Y16884D01*
X12994D01*
Y16284D01*
X13358D01*
Y16877D01*
X13368Y16887D01*
X13742D01*
Y16887D01*
Y16884D01*
D01*
Y16884D01*
X13742D01*
D01*
Y16633D01*
X13585Y16476D01*
X13549Y16423D01*
X13537Y16360D01*
Y16103D01*
X13515Y16085D01*
X13473Y16031D01*
X13447Y15968D01*
X13438Y15900D01*
X13447Y15832D01*
X13473Y15769D01*
X13515Y15715D01*
X13569Y15673D01*
X13632Y15647D01*
X13700Y15638D01*
X13768Y15647D01*
X13831Y15673D01*
X13885Y15715D01*
X13927Y15769D01*
X13953Y15832D01*
X13962Y15900D01*
X13953Y15968D01*
X13927Y16031D01*
X13885Y16085D01*
X13863Y16103D01*
Y16284D01*
X14106D01*
Y16884D01*
X13876D01*
X13862Y16932D01*
X13865Y16935D01*
X14039Y17109D01*
X14075Y17162D01*
X14087Y17224D01*
Y17316D01*
X14106D01*
Y17453D01*
X14413D01*
Y17358D01*
X14887D01*
Y17453D01*
X15148D01*
X15154Y17407D01*
X15190Y17321D01*
X15247Y17247D01*
X15321Y17190D01*
X15407Y17154D01*
X15450Y17148D01*
Y14443D01*
X15388D01*
Y13933D01*
X15272D01*
Y13995D01*
X14128D01*
Y13442D01*
X15272D01*
Y13504D01*
X15388D01*
Y13457D01*
X15450D01*
Y12913D01*
X12560D01*
Y13060D01*
X12140D01*
Y12913D01*
X12060D01*
Y13060D01*
X11640D01*
Y12913D01*
X11560D01*
Y13060D01*
X11140D01*
Y12913D01*
X11060D01*
Y13060D01*
X10640D01*
Y12440D01*
X11060D01*
Y12587D01*
X11140D01*
Y12440D01*
X11560D01*
Y12587D01*
X11640D01*
Y12440D01*
X12060D01*
Y12587D01*
X12140D01*
Y12440D01*
X12560D01*
Y12587D01*
X15450D01*
Y12500D01*
X16379D01*
Y11692D01*
X16226D01*
Y11356D01*
X16858D01*
Y11692D01*
X16705D01*
Y12500D01*
X19888D01*
Y10112D01*
X10112D01*
Y18388D01*
X15450D01*
Y17852D01*
D02*
G37*
G36*
X19750Y12800D02*
X16750D01*
Y17244D01*
X16753Y17247D01*
X16810Y17321D01*
X16846Y17407D01*
X16858Y17500D01*
X16846Y17593D01*
X16810Y17679D01*
X16753Y17753D01*
X16750Y17756D01*
Y18250D01*
X19750D01*
Y12800D01*
D02*
G37*
%LPC*%
G36*
X15874Y11692D02*
X15242D01*
Y11356D01*
X15242Y11356D01*
X15242Y11318D01*
D01*
X15242Y11313D01*
X14672D01*
X14593Y11346D01*
X14500Y11358D01*
X14407Y11346D01*
X14321Y11310D01*
X14247Y11253D01*
X14190Y11179D01*
X14154Y11093D01*
X14142Y11000D01*
X14154Y10907D01*
X14190Y10821D01*
X14247Y10747D01*
X14321Y10690D01*
X14407Y10654D01*
X14500Y10642D01*
X14593Y10654D01*
X14679Y10690D01*
X14753Y10747D01*
X14810Y10821D01*
X14846Y10907D01*
X14857Y10987D01*
X15202D01*
Y10984D01*
X15202Y10984D01*
X15202Y10984D01*
Y10851D01*
X15914D01*
Y10984D01*
X15874D01*
Y11318D01*
D01*
Y11318D01*
X15874Y11318D01*
Y11356D01*
X15874D01*
Y11692D01*
D02*
G37*
G36*
X19495Y12441D02*
X18705D01*
Y11825D01*
X19495D01*
Y12441D01*
D02*
G37*
G36*
X11075Y11389D02*
Y11075D01*
X11389D01*
X11385Y11103D01*
X11345Y11199D01*
X11282Y11282D01*
X11199Y11345D01*
X11103Y11385D01*
X11075Y11389D01*
D02*
G37*
G36*
X11925D02*
X11897Y11385D01*
X11801Y11345D01*
X11718Y11282D01*
X11655Y11199D01*
X11615Y11103D01*
X11611Y11075D01*
X11925D01*
Y11389D01*
D02*
G37*
G36*
X12075D02*
Y11075D01*
X12389D01*
X12385Y11103D01*
X12345Y11199D01*
X12282Y11282D01*
X12199Y11345D01*
X12103Y11385D01*
X12075Y11389D01*
D02*
G37*
G36*
X14052Y13875D02*
X13594D01*
Y13417D01*
X14052D01*
Y13875D01*
D02*
G37*
G36*
X13444Y14483D02*
X12986D01*
Y14025D01*
X13444D01*
Y14483D01*
D02*
G37*
G36*
Y13875D02*
X12986D01*
Y13417D01*
X13444D01*
Y13875D01*
D02*
G37*
G36*
X18125Y14273D02*
X16870D01*
Y12910D01*
X18125D01*
Y14273D01*
D02*
G37*
G36*
X19530D02*
X18275D01*
Y12910D01*
X19530D01*
Y14273D01*
D02*
G37*
G36*
X10925Y10925D02*
X10611D01*
X10615Y10897D01*
X10655Y10801D01*
X10718Y10718D01*
X10801Y10655D01*
X10897Y10615D01*
X10925Y10611D01*
Y10925D01*
D02*
G37*
G36*
X11389D02*
X11075D01*
Y10611D01*
X11103Y10615D01*
X11199Y10655D01*
X11282Y10718D01*
X11345Y10801D01*
X11385Y10897D01*
X11389Y10925D01*
D02*
G37*
G36*
X15914Y10701D02*
X15633D01*
Y10568D01*
X15914D01*
Y10701D01*
D02*
G37*
G36*
X17655Y12401D02*
X16945D01*
Y11099D01*
X17137D01*
Y11095D01*
X17149Y11033D01*
X17150Y11031D01*
X17127Y10987D01*
X16857D01*
Y10944D01*
X16226D01*
Y10608D01*
X16857D01*
Y10513D01*
X17253D01*
Y10847D01*
X17299Y10866D01*
X17447Y10717D01*
Y10513D01*
X17843D01*
Y10987D01*
X17639D01*
X17573Y11053D01*
X17592Y11099D01*
X17655D01*
Y12401D01*
D02*
G37*
G36*
X15483Y10701D02*
X15202D01*
Y10568D01*
X15483D01*
Y10701D01*
D02*
G37*
G36*
X11925Y10925D02*
X11611D01*
X11615Y10897D01*
X11655Y10801D01*
X11718Y10718D01*
X11801Y10655D01*
X11897Y10615D01*
X11925Y10611D01*
Y10925D01*
D02*
G37*
G36*
X19495Y11675D02*
X19175D01*
Y11059D01*
X19495D01*
Y11675D01*
D02*
G37*
G36*
X10925Y11389D02*
X10897Y11385D01*
X10801Y11345D01*
X10718Y11282D01*
X10655Y11199D01*
X10615Y11103D01*
X10611Y11075D01*
X10925D01*
Y11389D01*
D02*
G37*
G36*
X19025Y11675D02*
X18705D01*
Y11059D01*
X19025D01*
Y11675D01*
D02*
G37*
G36*
X12389Y10925D02*
X12075D01*
Y10611D01*
X12103Y10615D01*
X12199Y10655D01*
X12282Y10718D01*
X12345Y10801D01*
X12385Y10897D01*
X12389Y10925D01*
D02*
G37*
G36*
X13500Y11358D02*
X13407Y11346D01*
X13321Y11310D01*
X13247Y11253D01*
X13190Y11179D01*
X13154Y11093D01*
X13142Y11000D01*
X13154Y10907D01*
X13190Y10821D01*
X13247Y10747D01*
X13321Y10690D01*
X13407Y10654D01*
X13500Y10642D01*
X13593Y10654D01*
X13679Y10690D01*
X13753Y10747D01*
X13810Y10821D01*
X13846Y10907D01*
X13858Y11000D01*
X13846Y11093D01*
X13810Y11179D01*
X13753Y11253D01*
X13679Y11310D01*
X13593Y11346D01*
X13500Y11358D01*
D02*
G37*
G36*
X14575Y17282D02*
X14373D01*
Y17099D01*
X14575D01*
Y17282D01*
D02*
G37*
G36*
X14927D02*
X14725D01*
Y17099D01*
X14927D01*
Y17282D01*
D02*
G37*
G36*
X11487Y17253D02*
X11013D01*
Y16952D01*
X10965Y16920D01*
X10837Y17048D01*
Y17253D01*
X10363D01*
Y16857D01*
X10567D01*
X10687Y16737D01*
Y16060D01*
X10640D01*
Y15440D01*
X11060D01*
Y16060D01*
X11013D01*
Y16805D01*
X11010Y16818D01*
X11042Y16857D01*
X11187D01*
Y16060D01*
X11140D01*
Y15440D01*
X11560D01*
Y16060D01*
X11513D01*
Y16955D01*
X11501Y17017D01*
X11487Y17037D01*
Y17253D01*
D02*
G37*
G36*
X14927Y16949D02*
X14725D01*
Y16767D01*
X14927D01*
Y16949D01*
D02*
G37*
G36*
X12837Y17253D02*
X12363D01*
Y17048D01*
X12235Y16920D01*
X12187Y16952D01*
Y17253D01*
X11713D01*
Y17037D01*
X11699Y17017D01*
X11687Y16955D01*
Y16060D01*
X11640D01*
Y15440D01*
X12060D01*
Y16060D01*
X12013D01*
Y16857D01*
X12158D01*
X12190Y16818D01*
X12187Y16805D01*
Y16060D01*
X12140D01*
Y15440D01*
X12560D01*
Y16060D01*
X12513D01*
Y16737D01*
X12633Y16857D01*
X12837D01*
Y17253D01*
D02*
G37*
G36*
X17925Y17425D02*
X17611D01*
X17615Y17397D01*
X17655Y17301D01*
X17718Y17218D01*
X17801Y17155D01*
X17897Y17115D01*
X17925Y17111D01*
Y17425D01*
D02*
G37*
G36*
X18075Y17889D02*
Y17575D01*
X18389D01*
X18385Y17603D01*
X18345Y17699D01*
X18282Y17782D01*
X18199Y17845D01*
X18103Y17885D01*
X18075Y17889D01*
D02*
G37*
G36*
X13475Y17956D02*
X13328D01*
Y17916D01*
X12994D01*
Y17808D01*
X12837D01*
Y17843D01*
X12363D01*
Y17808D01*
X12187D01*
Y17843D01*
X11713D01*
Y17808D01*
X11487D01*
Y17843D01*
X11013D01*
Y17808D01*
X10837D01*
Y17843D01*
X10363D01*
Y17447D01*
X10837D01*
Y17482D01*
X11013D01*
Y17447D01*
X11487D01*
Y17482D01*
X11713D01*
Y17447D01*
X12187D01*
Y17482D01*
X12363D01*
Y17447D01*
X12837D01*
Y17482D01*
X12994D01*
Y17316D01*
X13328D01*
Y17276D01*
X13475D01*
Y17616D01*
Y17956D01*
D02*
G37*
G36*
X17925Y17889D02*
X17897Y17885D01*
X17801Y17845D01*
X17718Y17782D01*
X17655Y17699D01*
X17615Y17603D01*
X17611Y17575D01*
X17925D01*
Y17889D01*
D02*
G37*
G36*
X18389Y17425D02*
X18075D01*
Y17111D01*
X18103Y17115D01*
X18199Y17155D01*
X18282Y17218D01*
X18345Y17301D01*
X18385Y17397D01*
X18389Y17425D01*
D02*
G37*
G36*
X19000Y17858D02*
X18907Y17846D01*
X18821Y17810D01*
X18747Y17753D01*
X18690Y17679D01*
X18654Y17593D01*
X18642Y17500D01*
X18654Y17407D01*
X18690Y17321D01*
X18747Y17247D01*
X18821Y17190D01*
X18907Y17154D01*
X19000Y17142D01*
X19093Y17154D01*
X19179Y17190D01*
X19253Y17247D01*
X19310Y17321D01*
X19346Y17407D01*
X19358Y17500D01*
X19346Y17593D01*
X19310Y17679D01*
X19253Y17753D01*
X19179Y17810D01*
X19093Y17846D01*
X19000Y17858D01*
D02*
G37*
G36*
X15312Y14706D02*
X14775D01*
Y14465D01*
X15312D01*
Y14706D01*
D02*
G37*
G36*
X14625Y15098D02*
X14088D01*
Y14856D01*
X14625D01*
Y15098D01*
D02*
G37*
G36*
X19530Y15787D02*
X18275D01*
Y14423D01*
X19530D01*
Y15787D01*
D02*
G37*
G36*
X14625Y14706D02*
X14088D01*
Y14483D01*
X14052D01*
Y14483D01*
X13594D01*
Y14025D01*
X14052D01*
Y14465D01*
X14088D01*
Y14465D01*
X14625D01*
Y14706D01*
D02*
G37*
G36*
X18125Y15787D02*
X16870D01*
Y14423D01*
X18125D01*
Y15787D01*
D02*
G37*
G36*
X15312Y15098D02*
X14775D01*
Y14856D01*
X15312D01*
Y15098D01*
D02*
G37*
G36*
X15233Y16333D02*
X14775D01*
Y15875D01*
X15233D01*
Y16333D01*
D02*
G37*
G36*
X14575Y16949D02*
X14373D01*
Y16767D01*
X14575D01*
Y16949D01*
D02*
G37*
G36*
X14625Y16333D02*
X14167D01*
Y15875D01*
X14625D01*
Y16333D01*
D02*
G37*
G36*
Y15725D02*
X14167D01*
Y15267D01*
X14625D01*
Y15725D01*
D02*
G37*
G36*
X15233D02*
X14775D01*
Y15267D01*
X15233D01*
Y15725D01*
D02*
G37*
%LPD*%
D10*
X14700Y13719D02*
D03*
Y14782D02*
D03*
D11*
X17300Y11750D02*
D03*
X19100D02*
D03*
D12*
X18200Y14348D02*
D03*
D13*
X17645Y10750D02*
D03*
X17055D02*
D03*
D14*
X13924Y16584D02*
D03*
X13176D02*
D03*
Y17616D02*
D03*
X13550D02*
D03*
X13924D02*
D03*
D15*
X14650Y17024D02*
D03*
Y17576D02*
D03*
D16*
X15558Y11524D02*
D03*
Y11150D02*
D03*
Y10776D02*
D03*
X16542D02*
D03*
Y11524D02*
D03*
D17*
X11250Y17645D02*
D03*
Y17055D02*
D03*
X11950Y17645D02*
D03*
Y17055D02*
D03*
X12600Y17645D02*
D03*
Y17055D02*
D03*
X10600Y17645D02*
D03*
Y17055D02*
D03*
D18*
X10850Y15750D02*
D03*
X11350D02*
D03*
X11850D02*
D03*
X12350D02*
D03*
Y12750D02*
D03*
X11850D02*
D03*
X11350D02*
D03*
X10850D02*
D03*
D19*
X13924Y17616D02*
X15384D01*
X13176Y16584D02*
Y16926D01*
X13300Y17050D01*
X13750D01*
X13924Y17224D01*
Y17616D01*
X13700Y15900D02*
Y16360D01*
X13924Y16584D01*
X15384Y17616D02*
X15500Y17500D01*
X12600Y17645D02*
X13206D01*
X11850Y12750D02*
X12350D01*
X15881Y12981D02*
Y13950D01*
X15650Y12750D02*
X15881Y12981D01*
X12500Y12750D02*
X15650D01*
X14650Y11150D02*
X15558D01*
X14500Y11000D02*
X14650Y11150D01*
X11350Y12750D02*
X11850D01*
X10850D02*
X11350D01*
X11950Y17645D02*
X12600D01*
X11250D02*
X11950D01*
X10600D02*
X11250D01*
X12350Y16805D02*
X12600Y17055D01*
X12350Y15750D02*
Y16805D01*
X11850Y16955D02*
X11950Y17055D01*
X11850Y15750D02*
Y16955D01*
X11250Y17055D02*
X11350Y16955D01*
Y15750D02*
Y16955D01*
X10600Y17055D02*
X10850Y16805D01*
Y15750D02*
Y16805D01*
X16542Y11524D02*
Y13289D01*
X15881Y13950D02*
X16542Y13289D01*
Y10776D02*
X17029D01*
X17300Y11095D02*
Y11750D01*
Y11095D02*
X17645Y10750D01*
D20*
X15650Y13719D02*
X15881Y13950D01*
X14700Y13719D02*
X15650D01*
X15500Y17500D02*
X16500D01*
Y16750D02*
Y17500D01*
X15881Y16131D02*
X16500Y16750D01*
X15881Y13950D02*
Y16131D01*
D21*
Y13950D02*
D03*
X13519D02*
D03*
X14700Y15800D02*
D03*
D22*
X16500Y17500D02*
D03*
X15500D02*
D03*
X12000Y11000D02*
D03*
X11000D02*
D03*
X13500D02*
D03*
X14500D02*
D03*
X18000Y17500D02*
D03*
X19000D02*
D03*
D23*
X13700Y15900D02*
D03*
M02*
