%FSLAX24Y24*%
%MOIN*%
G70*
G01*
G75*
G04 Layer_Color=16711935*
%ADD10R,0.0500X0.0299*%
%ADD11R,0.0315X0.0354*%
%ADD12R,0.0244X0.0480*%
%ADD13R,0.0276X0.0354*%
%ADD14C,0.0200*%
%ADD15C,0.0591*%
%ADD16C,0.0492*%
%ADD17R,0.0354X0.0315*%
%ADD18R,0.0354X0.0276*%
%ADD19R,0.0512X0.0236*%
%ADD20C,0.0100*%
%ADD21C,0.0050*%
%ADD22C,0.0079*%
%ADD23C,0.0080*%
%ADD24R,0.0560X0.0359*%
%ADD25R,0.0375X0.0414*%
%ADD26R,0.0304X0.0540*%
%ADD27R,0.0336X0.0414*%
%ADD28C,0.0651*%
%ADD29C,0.0552*%
%ADD30R,0.0414X0.0375*%
%ADD31R,0.0414X0.0336*%
%ADD32R,0.0572X0.0296*%
D28*
X16750Y10750D02*
D03*
X15750D02*
D03*
X14250D02*
D03*
X13250D02*
D03*
X14250Y15250D02*
D03*
X13250D02*
D03*
X16750D02*
D03*
X15750D02*
D03*
X11750Y10750D02*
D03*
X10750D02*
D03*
X11750Y15250D02*
D03*
X10750D02*
D03*
D29*
X10500Y14043D02*
D03*
Y13000D02*
D03*
Y11957D02*
D03*
D30*
X11250Y13776D02*
D03*
Y13224D02*
D03*
X11250Y11974D02*
D03*
Y12526D02*
D03*
D31*
X12450Y10755D02*
D03*
Y11345D02*
D03*
D32*
X13313Y12600D02*
D03*
X12487Y12974D02*
D03*
Y12226D02*
D03*
M02*
