%FSLAX24Y24*%
%MOIN*%
G70*
G01*
G75*
G04 Layer_Color=65535*
%ADD10R,0.0500X0.0299*%
%ADD11R,0.0315X0.0354*%
%ADD12R,0.0244X0.0480*%
%ADD13R,0.0276X0.0354*%
%ADD14C,0.0200*%
%ADD15C,0.0591*%
%ADD16C,0.0492*%
%ADD17R,0.0354X0.0315*%
%ADD18R,0.0354X0.0276*%
%ADD19R,0.0512X0.0236*%
%ADD20C,0.0100*%
%ADD21C,0.0050*%
%ADD22C,0.0079*%
%ADD23C,0.0080*%
D20*
X17398Y12904D02*
G03*
X17398Y12904I-39J0D01*
G01*
D21*
X15250Y11250D02*
X17250D01*
X15250Y10250D02*
X17250D01*
X15250D02*
Y11250D01*
X17250Y10250D02*
Y11250D01*
X12750D02*
X14750D01*
X12750Y10250D02*
X14750D01*
X12750D02*
Y11250D01*
X14750Y10250D02*
Y11250D01*
X12750Y15750D02*
X14750D01*
X12750Y14750D02*
X14750D01*
X12750D02*
Y15750D01*
X14750Y14750D02*
Y15750D01*
X15250D02*
X17250D01*
X15250Y14750D02*
X17250D01*
X15250D02*
Y15750D01*
X17250Y14750D02*
Y15750D01*
X10250Y11250D02*
X12250D01*
X10250Y10250D02*
X12250D01*
X10250D02*
Y11250D01*
X12250Y10250D02*
Y11250D01*
X10250Y15750D02*
X12250D01*
X10250Y14750D02*
X12250D01*
X10250D02*
Y15750D01*
X12250Y14750D02*
Y15750D01*
X13300Y13600D02*
Y13900D01*
X13450D01*
X13500Y13850D01*
Y13750D01*
X13450Y13700D01*
X13300D01*
X13400D02*
X13500Y13600D01*
X13800D02*
X13600D01*
X13800Y13800D01*
Y13850D01*
X13750Y13900D01*
X13650D01*
X13600Y13850D01*
X13300Y13100D02*
Y13400D01*
X13450D01*
X13500Y13350D01*
Y13250D01*
X13450Y13200D01*
X13300D01*
X13400D02*
X13500Y13100D01*
X13600Y13350D02*
X13650Y13400D01*
X13750D01*
X13800Y13350D01*
Y13300D01*
X13750Y13250D01*
X13700D01*
X13750D01*
X13800Y13200D01*
Y13150D01*
X13750Y13100D01*
X13650D01*
X13600Y13150D01*
X13300Y12600D02*
Y12900D01*
X13450D01*
X13500Y12850D01*
Y12750D01*
X13450Y12700D01*
X13300D01*
X13400D02*
X13500Y12600D01*
X13750D02*
Y12900D01*
X13600Y12750D01*
X13800D01*
X13300Y12100D02*
Y12400D01*
X13450D01*
X13500Y12350D01*
Y12250D01*
X13450Y12200D01*
X13300D01*
X13400D02*
X13500Y12100D01*
X13800Y12400D02*
X13600D01*
Y12250D01*
X13700Y12300D01*
X13750D01*
X13800Y12250D01*
Y12150D01*
X13750Y12100D01*
X13650D01*
X13600Y12150D01*
D22*
X17241Y12353D02*
Y12747D01*
X16059D02*
X17241D01*
X16059Y12353D02*
Y12747D01*
Y12353D02*
X17241D01*
X15421Y14188D02*
X15579D01*
X15421Y13912D02*
X15579D01*
X15421Y13488D02*
X15579D01*
X15421Y13212D02*
X15579D01*
X15421Y12788D02*
X15579D01*
X15421Y12512D02*
X15579D01*
X15421Y12138D02*
X15579D01*
X15421Y11862D02*
X15579D01*
D23*
X10950Y14600D02*
Y14333D01*
X11083Y14200D01*
X11217Y14333D01*
Y14600D01*
X11350Y14200D02*
X11483D01*
X11417D01*
Y14467D01*
X11350D01*
X11683Y14200D02*
Y14467D01*
X11883D01*
X11950Y14400D01*
Y14200D01*
X13050Y14550D02*
Y14283D01*
X13183Y14150D01*
X13317Y14283D01*
Y14550D01*
X13716Y14483D02*
X13650Y14550D01*
X13517D01*
X13450Y14483D01*
Y14217D01*
X13517Y14150D01*
X13650D01*
X13716Y14217D01*
X14116Y14483D02*
X14050Y14550D01*
X13916D01*
X13850Y14483D01*
Y14217D01*
X13916Y14150D01*
X14050D01*
X14116Y14217D01*
X14516Y14550D02*
X14250D01*
Y14350D01*
X14383Y14417D01*
X14450D01*
X14516Y14350D01*
Y14217D01*
X14450Y14150D01*
X14316D01*
X14250Y14217D01*
X15900Y14450D02*
X15633D01*
X15767Y14583D02*
Y14317D01*
X16900Y14500D02*
X16633D01*
M02*
